HIERARCHY
ROOT pelvis
{
  OFFSET 0 100 0
  CHANNELS 6 Xposition Yposition Zposition Zrotation Xrotation Yrotation
  JOINT pelvis_right_femur
  {
    OFFSET -10.78128 -3.44521 -0.5502486
    CHANNELS 3 Zrotation Xrotation Yrotation
    JOINT right_femur_tibia
    {
      OFFSET -0.8047443 -44.0398 -0.1307829
      CHANNELS 3 Zrotation Xrotation Yrotation
      JOINT right_tibia_foot
      {
        OFFSET 3.006224 -47.83518 -5
        CHANNELS 3 Zrotation Xrotation Yrotation
        End Site
        {
          OFFSET 0 -5 15
        }
      }
    }
  }
  JOINT pelvis_left_femur
  {
    OFFSET 10.78128 -3.44521 -0.5502486
    CHANNELS 3 Zrotation Xrotation Yrotation
    JOINT left_femur_tibia
    {
      OFFSET 0.8047443 -44.0398 -0.1307829
      CHANNELS 3 Zrotation Xrotation Yrotation
      JOINT left_tibia_foot
      {
        OFFSET -4.370144 -48.10324 -4.275266
        CHANNELS 3 Zrotation Xrotation Yrotation
        End Site
        {
          OFFSET 0 -5 15
        }
      }
    }
  }
  JOINT pelvis_spine1
  {
    OFFSET 0 6.468898 -3.129235
    CHANNELS 3 Zrotation Xrotation Yrotation
    JOINT spine1
    {
      OFFSET 0 23.15396 4.99043
      CHANNELS 3 Zrotation Xrotation Yrotation
      JOINT spine2
      {
        OFFSET 0 20.79997 -5.064912
        CHANNELS 3 Zrotation Xrotation Yrotation
        JOINT neck
        {
          OFFSET 0 14.38658 9.616178
          CHANNELS 3 Zrotation Xrotation Yrotation
          End Site
          {
            OFFSET 0 20 0
          }
        }
      }
      JOINT right_manubrium
      {
        OFFSET -5.722621 16.35077 3.967754
        CHANNELS 3 Zrotation Xrotation Yrotation
        JOINT right_clavicle
        {
          OFFSET -13.16364 1.694482 -4.693211
          CHANNELS 3 Zrotation Xrotation Yrotation
          JOINT right_humerus
          {
            OFFSET -28.5034 -0.3100689 -2.792744
            CHANNELS 3 Zrotation Xrotation Yrotation
            JOINT right_radius
            {
              OFFSET -25.15693 0.02248979 -1.271978
              CHANNELS 3 Zrotation Xrotation Yrotation
              End Site
              {
                OFFSET -15 0 0
              }
            }
          }
        }
      }
      JOINT left_manubrium
      {
        OFFSET 5.722621 16.35077 3.967754
        CHANNELS 3 Zrotation Xrotation Yrotation
        JOINT left_clavicle
        {
          OFFSET 13.16364 1.694482 -4.693211
          CHANNELS 3 Zrotation Xrotation Yrotation
          JOINT left_humerus
          {
            OFFSET 29.39168 -1.063119 -2.237045
            CHANNELS 3 Zrotation Xrotation Yrotation
            JOINT left_radius
            {
              OFFSET 24.59957 -0.9528479 0.9047498
              CHANNELS 3 Zrotation Xrotation Yrotation
              End Site
              {
                OFFSET 15 -0 -0
              }
            }
          }
        }
      }
    }
  }
}
MOTION
Frames: 13
Frame Time: 0.0416666666667
34.75805 101.2782 282.0215 2.223242 -8.144355 1.550801 -1.818437 15.95219 5.951214 -0 42.77259 -0 13.92102 -5.331331 -4.181192 -3.82026 -17.77683 -7.693248 -0 25.62681 -0 -9.064181 -9.712222 18.60939 -2.240943 -0.5437155 9.227661 -2.23131 7.728337 -1.18204 3.182978 22.64173 8.97663 2.013141 -16.30011 12.92164 2.430546 -18.5882 9.762941 77.60113 25.95886 -3.674337 -0 0 23.49414 -36.05865 24.02634 17.2534 3.678604 -11.23824 -3.49541 -92.97275 23.02453 27.23851 0 0 -9.352421 -4.741461 9.321093 18.84022
36.25054 102.3965 288.5301 2.345992 -8.473457 2.539325 -2.243476 12.40795 4.697809 -0 51.71187 -0 14.19558 -3.677746 -6.617513 -4.818448 -12.94525 -8.14453 -0 25.18616 -0 -8.985564 -11.23288 17.84314 -2.354127 -0.141108 8.363842 -2.265571 7.841252 -1.423962 3.085723 23.10476 9.118619 1.691983 -15.90256 13.3036 3.049224 -17.14035 9.580667 79.63738 26.70422 -5.430909 -0 0 21.10343 -34.98737 24.02671 16.64177 3.352163 -11.93496 -3.681681 -91.35478 23.4207 24.55522 0 0 -10.40342 -4.158719 9.828086 18.15417
37.70966 103.7753 295.1752 2.319887 -9.690782 3.750368 -1.692304 5.712971 3.548657 -0 57.28568 -0 13.61248 -4.636961 -7.835096 -5.166805 -7.254897 -8.409802 -0 23.52279 -0 -9.035851 -12.43703 16.95889 -2.189093 0.7353466 7.107885 -2.216161 7.788056 -1.881996 2.39514 23.5024 9.483933 1.082982 -15.39214 13.44454 3.670065 -16.29024 9.619755 81.09375 27.54806 -6.950809 -0 0 18.73474 -33.88105 24.08742 16.14498 3.290389 -12.75781 -4.008586 -89.44086 23.76039 21.1484 0 0 -11.92813 -3.318319 10.43311 17.21038
39.07648 105.327 300.3229 2.137857 -9.922417 4.83497 -0.7419951 -1.421663 2.554909 -0 58.80347 -0 12.37028 -5.635678 -8.552989 -5.333259 -1.504212 -8.942586 -0 21.03557 -0 -9.226544 -13.16198 15.98173 -1.884627 1.565767 5.628514 -2.099168 7.674837 -2.467827 2.109682 24.11902 9.565908 0.6750427 -14.7291 13.60294 3.918503 -15.46577 9.643541 82.9823 28.30522 -8.497286 -0 0 17.05332 -32.68191 23.96286 15.73919 3.300995 -14.12208 -4.434965 -87.39978 23.98706 17.06086 0 0 -13.92561 -2.351537 11.0734 16.07059
40.38557 106.383 305.5903 2.013609 -9.807658 6.101704 -0.2312471 -8.014488 1.954028 -0 55.91357 -0 10.91902 -6.056929 -9.034411 -5.084863 3.104917 -9.662683 -0 18.02859 -0 -9.423768 -13.83981 14.82225 -1.648707 1.983805 4.246092 -1.893067 7.472197 -3.297828 2.056053 24.4733 9.442775 0.3890032 -14.112 13.66521 3.536099 -14.43696 9.332183 84.97008 28.83108 -10.32659 -0 0 15.71965 -31.47231 23.64519 15.29854 3.729542 -15.31635 -4.693771 -85.40594 24.02725 12.89765 0 0 -16.30929 -1.299719 11.73579 14.70364
41.45521 106.8038 310.9225 1.915731 -9.318714 7.640858 -0.05119521 -13.86251 1.51461 -0 49.46289 -0 9.508473 -6.045795 -9.423657 -4.797869 7.315393 -10.20659 -0 15.37267 -0 -9.571976 -14.69565 13.75222 -1.774845 2.04459 3.043722 -1.536139 7.173671 -4.293234 2.245603 24.54696 9.100835 0.2515583 -13.625 13.6079 2.863889 -13.29667 8.894835 86.82225 29.14651 -12.2635 -0 0 14.57513 -30.33762 23.17918 14.8348 4.473256 -16.33116 -4.968632 -83.56146 23.96109 8.8572 0 0 -18.76169 -0.2574034 12.36412 13.1873
42.57495 106.5188 316.4519 2.182813 -8.710237 9.297582 -0.1080187 -19.24252 1.356366 -0 40.88924 -0 8.133515 -5.838246 -9.819907 -4.786185 11.17041 -10.51973 -0 13.38089 -0 -9.621788 -15.90616 12.76368 -2.165221 1.972325 2.071291 -1.238125 6.787382 -5.106043 2.6149 24.48739 8.509717 0.2615771 -13.26952 13.3367 2.035531 -12.06978 8.603354 88.42886 29.30764 -14.12692 -0 0 13.39378 -29.16346 22.61446 14.22414 5.401486 -17.38781 -5.134548 -81.95706 23.78118 4.914312 0 0 -21.39451 0.8537067 13.02726 11.49676
43.57392 105.6053 322.2792 2.317297 -7.52638 10.26432 -0.6928333 -22.60208 1.248854 -0 31.03901 -0 6.510962 -6.949578 -9.466415 -4.792674 14.31483 -10.74044 -0 12.28304 -0 -9.632333 -17.31794 11.85984 -2.699732 1.928877 1.605546 -0.9981327 6.45382 -5.385372 3.117711 24.17219 7.702762 0.3936561 -13.15307 12.84492 1.317159 -10.57787 8.681006 90.01373 29.38259 -15.94144 -0 0 11.94605 -27.80166 22.03711 13.37654 6.483529 -18.50666 -5.051858 -80.58432 23.5001 1.337943 0 0 -23.96041 2.050866 13.70703 9.706738
44.39268 104.2607 327.6582 2.534688 -7.252865 11.20732 -0.9881757 -25.25377 0.7871204 -0 22.8979 -0 4.847246 -8.617204 -9.139687 -4.800084 17.14884 -10.95727 -0 12.83523 -0 -9.651165 -18.68329 11.13725 -2.975418 1.704262 1.583979 -0.7729382 6.054749 -5.120881 3.469018 24.05283 7.176185 0.5291981 -13.16574 12.5295 1.155401 -9.334642 9.155547 91.16517 29.46969 -17.47468 -0 0 10.04955 -26.18503 21.45434 12.24228 6.936066 -19.59549 -5.174514 -79.36568 23.18612 -2.025321 0 0 -25.84784 3.196604 14.33423 7.990468
45.22098 102.802 333.6091 2.553541 -6.953962 11.40178 0.08185828 -26.04035 -0.1135324 -0 17.65068 -0 3.144829 -10.891 -9.788776 -4.831384 19.37059 -11.07117 -0 15.25254 -0 -9.815848 -19.40074 10.70713 -3.011321 1.567484 1.517819 -0.5408635 5.969337 -4.864351 3.572426 24.06938 6.800823 0.618794 -13.18074 12.14674 1.275587 -8.503579 9.508017 91.90793 29.56873 -18.56626 -0 0 7.994418 -24.40842 20.81095 10.9646 7.289779 -20.40285 -5.059753 -78.56531 22.86417 -4.291895 0 0 -26.907 4.26038 14.90348 6.449816
46.04152 101.8026 340.1382 2.085968 -7.421734 11.24226 1.446541 -25.69149 -0.4942218 -0 17.0192 -0 1.632788 -12.20475 -10.57186 -4.401257 20.75317 -11.48219 -0 20.05865 -0 -10.17836 -18.81606 10.62948 -2.507286 1.41402 1.348517 -0.3868003 6.203447 -4.621316 3.684241 24.20384 6.348099 0.7831803 -13.2471 11.62803 1.298288 -7.995187 9.829589 92.35587 29.69067 -19.07535 -0 0 6.323486 -22.61234 20.11211 9.781051 7.527201 -20.62489 -4.740798 -78.47113 22.69873 -5.175975 0 0 -26.87594 5.141413 15.41724 5.219107
46.8726 101.1351 347.5874 1.67081 -7.781761 12.59489 3.613118 -23.22694 1.473219 -0 20.99245 -0 0.5751604 -10.8185 -9.856567 -3.465458 21.75026 -11.70017 -0 26.43283 -0 -10.49104 -17.00099 10.95283 -1.837553 0.3575026 0.441088 -0.3701192 6.489065 -4.989919 3.872432 24.41773 5.797525 1.043643 -13.28556 11.00545 1.130647 -7.387212 9.584025 92.85679 29.66153 -19.41469 -0 0 5.135639 -20.97353 19.26784 8.813154 7.628573 -20.12962 -4.346197 -79.22692 22.80358 -4.58857 0 0 -25.59605 5.712255 15.88848 4.427136
47.66505 101.3646 354.5046 0.9094856 -8.189191 12.7984 4.797964 -20.06937 2.56486 -0 23.71913 -0 -0.7402965 -10.2065 -9.426851 -2.841009 21.16985 -11.45532 -0 34.30283 -0 -10.41529 -14.59237 11.84772 -0.8793896 0.02924018 0.03255144 -0.3899378 6.781599 -4.995307 3.806113 24.75648 5.478621 1.210775 -13.21459 10.43093 1.201732 -7.476261 9.478298 92.58658 29.65185 -18.87422 -0 0 4.574707 -19.55684 18.25953 8.074398 7.383843 -19.59781 -4.017926 -80.49376 23.06302 -3.054413 0 0 -23.14217 5.916466 16.33309 4.099738
